<svg xmlns="http://www.w3.org/2000/svg" viewBox="0 0 807.02 810.28"><defs><style>.cls-1{fill:#c1c1c1;}</style></defs><g id="Layer_2" data-name="Layer 2"><g id="Bulb"><path class="cls-1" d="M521.3,180.82c-50.51-63.43-121.4-62.14-125.95-62h-.05s-74.14-3.57-126.35,62-24.28,139.62-24.28,139.62,10.93,26.71,25.5,46.13,36.42,65.56,42.49,103.2,27.92,36.42,27.92,36.42H449.67s21.86,1.22,27.93-36.42,27.92-83.77,42.49-103.2,25.5-46.13,25.5-46.13S573.51,246.38,521.3,180.82ZM504.25,351c-15.32,20.43-34.91,65.62-34.91,65.62s-10.41,24.13-15.38,43.4-11.49,18-11.49,18l-.09-122.51c9.75-5.06,48.09-29,48.34-84.42s-49.44-78.22-49.44-78.22l-.17,72.17c-.9,15-18.69,20.76-18.69,20.76H367.9s-18.82-5.46-18.82-22.46V193s-49.77,21.86-49.77,80.13,48.56,82.56,48.56,82.56V478.27s-7.29,1.21-12.14-20.64c-3.33-15-24.28-68-41.28-93.48S235,274.31,283.52,201.46c0,0,30.35-54.63,111.7-57.06a189.07,189.07,0,0,1,48,8.51c75.32,28.34,83.49,90.39,85.79,113.37S519.57,330.62,504.25,351Z"/><path class="cls-1" d="M442,518.33H344.75a2.67,2.67,0,0,0-2.3,1.33l-7.37,8.88a2.67,2.67,0,0,0,0,2.65l7.37,8.88a2.67,2.67,0,0,0,2.3,1.33H442a2.67,2.67,0,0,0,2.3-1.33l7.37-8.88a2.67,2.67,0,0,0,0-2.65l-7.37-8.88A2.67,2.67,0,0,0,442,518.33Z"/><path class="cls-1" d="M435.17,550.31H351.62a2.27,2.27,0,0,0-2,1.14l-6.33,7.63a2.25,2.25,0,0,0,0,2.27l6.33,7.63a2.25,2.25,0,0,0,2,1.14h83.55a2.28,2.28,0,0,0,2-1.14l6.32-7.63a2.25,2.25,0,0,0,0-2.27l-6.32-7.63A2.3,2.3,0,0,0,435.17,550.31Z"/><path class="cls-1" d="M393.4,581.46h43.09c0,14.66-19.45,26.71-43.09,26.71s-43.1-12-43.1-26.71v-.12Z"/></g><g id="Wavies"><path class="cls-1" d="M406.14,77.45V9.81a6,6,0,0,0-2.59-4.93L398,1.06a6,6,0,0,0-6.8,0l-5.54,3.82a6,6,0,0,0-2.59,4.93V77.45a6,6,0,0,0,2.59,4.93l5.54,3.83a6,6,0,0,0,6.8,0l5.54-3.83A6,6,0,0,0,406.14,77.45Z"/><path class="cls-1" d="M195.33,265.81H127.69a6,6,0,0,0-4.93,2.59l-3.82,5.54a6,6,0,0,0,0,6.8l3.82,5.54a6,6,0,0,0,4.93,2.59h67.64a6,6,0,0,0,4.93-2.59l3.82-5.54a6,6,0,0,0,0-6.8l-3.82-5.54A6,6,0,0,0,195.33,265.81Z"/><path class="cls-1" d="M657.89,265.81H590.25a6,6,0,0,0-4.93,2.59l-3.83,5.54a6,6,0,0,0,0,6.8l3.83,5.54a6,6,0,0,0,4.93,2.59h67.64a6,6,0,0,0,4.93-2.59l3.82-5.54a6,6,0,0,0,0-6.8l-3.82-5.54A6,6,0,0,0,657.89,265.81Z"/><path class="cls-1" d="M588.15,454.57l-47.83-47.83a6,6,0,0,0-5.32-1.65l-6.62,1.21a6,6,0,0,0-4.81,4.81l-1.22,6.62a6,6,0,0,0,1.66,5.32l47.83,47.83a6,6,0,0,0,5.32,1.66l6.62-1.22a6,6,0,0,0,4.81-4.81l1.22-6.62A6,6,0,0,0,588.15,454.57Z"/><path class="cls-1" d="M571.84,80.16,524,128a6,6,0,0,0-1.66,5.31l1.22,6.63a6,6,0,0,0,4.81,4.81L535,146a6,6,0,0,0,5.32-1.65l47.83-47.83a6,6,0,0,0,1.66-5.32l-1.22-6.62a6,6,0,0,0-4.81-4.81l-6.62-1.22A6,6,0,0,0,571.84,80.16Z"/><path class="cls-1" d="M261.57,128,213.74,80.16a6,6,0,0,0-5.32-1.66l-6.62,1.22A6,6,0,0,0,197,84.53l-1.22,6.62a6,6,0,0,0,1.66,5.32l47.82,47.83a6,6,0,0,0,5.32,1.65l6.62-1.21a6,6,0,0,0,4.82-4.81l1.21-6.63A6,6,0,0,0,261.57,128Z"/><path class="cls-1" d="M245.25,406.74l-47.82,47.83a6,6,0,0,0-1.66,5.32l1.22,6.62a6,6,0,0,0,4.81,4.81l6.62,1.22a6,6,0,0,0,5.32-1.66l47.83-47.83a6,6,0,0,0,1.65-5.32L262,411.11a6,6,0,0,0-4.82-4.81l-6.62-1.21A6,6,0,0,0,245.25,406.74Z"/></g><g id="Pattarai_tamil" data-name="Pattarai tamil"><path class="cls-1" d="M2.3,665.41h26a2.3,2.3,0,0,1,2.3,2.3V745a2.3,2.3,0,0,0,2.3,2.3h67.24a2.3,2.3,0,0,0,2.3-2.3V667.71a2.3,2.3,0,0,1,2.3-2.3h26.08a2.3,2.3,0,0,1,2.3,2.3v95.68a2.3,2.3,0,0,1-2.3,2.3H2.3a2.3,2.3,0,0,1-2.3-2.3V667.71A2.3,2.3,0,0,1,2.3,665.41Z"/><path class="cls-1" d="M170.09,665.52h18.46A2.46,2.46,0,0,1,191,668v77.11a2.48,2.48,0,0,0,2.47,2.47h97.59a2.47,2.47,0,0,1,2.47,2.46v13.2a2.47,2.47,0,0,1-2.47,2.47h-121a2.46,2.46,0,0,1-2.47-2.47V668A2.46,2.46,0,0,1,170.09,665.52Z"/><path class="cls-1" d="M326.31,665.52h18.47a2.47,2.47,0,0,1,2.47,2.46v77.11a2.47,2.47,0,0,0,2.46,2.47h97.6a2.46,2.46,0,0,1,2.46,2.46v13.2a2.46,2.46,0,0,1-2.46,2.47h-121a2.46,2.46,0,0,1-2.46-2.47V668A2.46,2.46,0,0,1,326.31,665.52Z"/><path class="cls-1" d="M599.64,663.55c-13.15,0-25,4.25-27.75,5.61a2.76,2.76,0,0,1-1.33.27l-1.16-.08a2.54,2.54,0,0,1-1.08-.31c-2.41-1.29-13.84-6.7-36.1-6.7-25.26,0-60.29,18.91-60.29,60.29S499.68,766,502.16,766s27.59,1.08,27.59-35.19c0-27.67-16.6-33.14-24.47-34.18a2.64,2.64,0,0,1-1.74-4.23c3.43-4.43,9.64-8,21.09-11,10.27-2.7,20.53-.35,25.81,1.32a2.62,2.62,0,0,1,1.28,4.08c-3.56,4.76-9.89,15.83-9.89,34.44,0,25.88,9.77,44.79,29.92,44.79s29.13-25.73,29.13-43.4c0-14.2-8-30.23-11.2-36.45a2.62,2.62,0,0,1,1.87-3.78,51.71,51.71,0,0,1,8.71-.56c12.09,0,28.37,10.88,28.37,34.13,0,18.42-9.53,32.86-13.48,38a2.64,2.64,0,0,0,.55,3.72l11.49,8.35a2.63,2.63,0,0,0,3.22-.09c5.2-4.3,21-20.11,21-53.13C651.41,673.34,614.68,663.55,599.64,663.55Zm-91.3,67.35c.67,9.39-2.29,17.26-6.6,17.57s-8.35-7.06-9-16.46,2.29-17.27,6.6-17.58S507.67,721.5,508.34,730.9Zm62.79,16.53c-4.63,0-9.59-11.07-9.59-24.72s5-24.72,9.59-24.72,9.58,11.07,9.58,24.72S575.75,747.43,571.13,747.43Z"/><path class="cls-1" d="M700.7,692.07s2.94-11.49,11.49-11.49,13.1,5.13,14,11.2a3.81,3.81,0,0,1,0,.59v68.85a3.53,3.53,0,0,0,3.54,3.54h15a3.53,3.53,0,0,0,3.54-3.54V692.76a3.53,3.53,0,0,1,.33-1.5c1.15-2.42,5.34-9.73,14.14-9.73,10.53,0,16.63,9.41,16.73,10.49s3.88,9.66,3.88,27.64S777,762.28,769.2,767.55s-16.89,8.37-20.15,8.37H693s-23.48-2-23.48,24.23v6.59a3.55,3.55,0,0,0,3.54,3.54h15.41a3.52,3.52,0,0,0,3.45-2.75c1.07-4.9,4.18-14.61,11.91-14.61h52.51c.31,0,2.8-.52,3.1-.6,4-1.06,32.41-9.2,40.69-35.36,8.36-26.46,6.84-43.4,6.63-45.29,0-.12,0-.23,0-.36,0-3.21-.62-47.67-41.83-47.76h-.24c-1.41.08-15.11,1-23.09,7.7a3.57,3.57,0,0,1-4.62,0c-3.53-2.95-11.29-7.76-24.45-7.76-19,0-34.82,15-34.82,28.47,0,11.5.26,56.3.34,69.23a3.53,3.53,0,0,0,3.54,3.51h15.57a3.54,3.54,0,0,0,3.54-3.54V692.07"/></g><g id="Gear"><path class="cls-1" d="M253.93,674.62h-3.46a12.85,12.85,0,0,0-1.58-3.82l2.45-2.44a1,1,0,0,0,0-1.38l-2.89-2.88a1,1,0,0,0-1.37,0l-2.45,2.44a13.28,13.28,0,0,0-3.82-1.58V661.5a1,1,0,0,0-1-1h-4.08a1,1,0,0,0-1,1V665a13.4,13.4,0,0,0-3.82,1.58l-2.44-2.44a1,1,0,0,0-1.38,0L224.27,667a1,1,0,0,0,0,1.38l2.44,2.44a13.12,13.12,0,0,0-1.58,3.82h-3.46a1,1,0,0,0-1,1v4.08a1,1,0,0,0,1,1h3.46a13.06,13.06,0,0,0,1.58,3.81l-2.44,2.45a1,1,0,0,0,0,1.37l2.88,2.89a1,1,0,0,0,1.38,0l2.44-2.45a12.85,12.85,0,0,0,3.82,1.58v3.46a1,1,0,0,0,1,1h4.08a1,1,0,0,0,1-1V690.3a12.75,12.75,0,0,0,3.82-1.58l2.45,2.45a1,1,0,0,0,1.37,0l2.89-2.89a1,1,0,0,0,0-1.37l-2.45-2.45a12.8,12.8,0,0,0,1.58-3.81h3.46a1,1,0,0,0,1-1v-4.08A1,1,0,0,0,253.93,674.62ZM237.8,684.7a7.3,7.3,0,1,1,7.3-7.3A7.3,7.3,0,0,1,237.8,684.7Z"/></g><g id="Pattarai_eng" data-name="Pattarai eng"><path class="cls-1" d="M.37,809.34V780H12.79a8.38,8.38,0,0,1,3.74.84,9.87,9.87,0,0,1,2.95,2.23,10.46,10.46,0,0,1,1.94,3.14,9.41,9.41,0,0,1,.7,3.53,10.16,10.16,0,0,1-.66,3.61,10,10,0,0,1-1.86,3.12,9.11,9.11,0,0,1-2.89,2.18,8.18,8.18,0,0,1-3.71.83H6.07v9.82Zm5.7-14.81h6.6a3.26,3.26,0,0,0,2.62-1.28,5.32,5.32,0,0,0,1.05-3.47,5.71,5.71,0,0,0-.33-2,5,5,0,0,0-.86-1.51,3.56,3.56,0,0,0-1.26-.93,3.63,3.63,0,0,0-1.47-.31H6.07Z"/><path class="cls-1" d="M94.48,780h5l11.14,29.3H104.8l-2.72-7.3H91.84l-2.68,7.3H83.3ZM101,798l-4-11.51L92.79,798Z"/><path class="cls-1" d="M194.83,785h-9.37v24.31H179.8V785h-9.37v-5h24.4Z"/><path class="cls-1" d="M282.3,785h-9.37v24.31h-5.66V785H257.9v-5h24.4Z"/><path class="cls-1" d="M353.3,780h5l11.15,29.3h-5.86l-2.73-7.3H350.65l-2.68,7.3h-5.86Zm6.56,18-4.05-11.51L351.6,798Z"/><path class="cls-1" d="M434.61,809.34V780h13a8.36,8.36,0,0,1,3.73.84,9.74,9.74,0,0,1,2.95,2.23,10.46,10.46,0,0,1,1.94,3.14,9.41,9.41,0,0,1,.7,3.53,9.75,9.75,0,0,1-1.42,5.18,8.17,8.17,0,0,1-3.86,3.36l6.69,11h-6.4l-6-9.82h-5.61v9.82Zm5.7-14.81h7.14a3,3,0,0,0,1.47-.38,3.62,3.62,0,0,0,1.17-1,5.21,5.21,0,0,0,.79-1.5,5.94,5.94,0,0,0,.29-1.86,5.3,5.3,0,0,0-.33-1.9,5,5,0,0,0-.89-1.51,4.2,4.2,0,0,0-1.28-1,3.37,3.37,0,0,0-1.47-.35h-6.89Z"/><path class="cls-1" d="M531.87,780h5l11.15,29.3h-5.87l-2.72-7.3H529.22l-2.68,7.3h-5.86Zm6.56,18-4-11.51L530.17,798Z"/><path class="cls-1" d="M613.18,809.34V780h5.7v29.3Z"/></g></g></svg>